<svg width="10" height="14" viewBox="0 0 10 14" fill="none" xmlns="http://www.w3.org/2000/svg">
<path d="M9.66683 5.00004C9.66683 4.38721 9.54612 3.78037 9.3116 3.21418C9.07708 2.648 8.73333 2.13355 8.29999 1.70021C7.86665 1.26687 7.35221 0.923125 6.78602 0.688603C6.21983 0.454081 5.613 0.333374 5.00016 0.333374C4.38733 0.333374 3.78049 0.454081 3.21431 0.688603C2.64812 0.923125 2.13367 1.26687 1.70033 1.70021C1.26699 2.13355 0.923247 2.648 0.688725 3.21418C0.454203 3.78037 0.333496 4.38721 0.333496 5.00004C0.333496 5.92471 0.606829 6.78471 1.07016 7.51004H1.06483C2.63816 9.97337 5.00016 13.6667 5.00016 13.6667L8.9355 7.51004H8.93083C9.4111 6.76095 9.66653 5.88987 9.66683 5.00004ZM5.00016 7.00004C4.46973 7.00004 3.96102 6.78933 3.58595 6.41425C3.21088 6.03918 3.00016 5.53047 3.00016 5.00004C3.00016 4.46961 3.21088 3.9609 3.58595 3.58583C3.96102 3.21075 4.46973 3.00004 5.00016 3.00004C5.5306 3.00004 6.0393 3.21075 6.41438 3.58583C6.78945 3.9609 7.00016 4.46961 7.00016 5.00004C7.00016 5.53047 6.78945 6.03918 6.41438 6.41425C6.0393 6.78933 5.5306 7.00004 5.00016 7.00004Z" fill="black" fill-opacity="0.8"/>
</svg>
