<svg width="16" height="16" viewBox="0 0 16 16" fill="none" xmlns="http://www.w3.org/2000/svg">
<path d="M8.63068 8.26843C8.24019 8.09864 7.75981 8.09864 7.36932 8.26843C6.99012 8.43332 6.88172 8.85748 7.12909 9.18882C7.14794 9.21407 7.16674 9.23903 7.18548 9.26372C7.39095 9.53431 7.45393 9.89945 7.36754 10.228C7.32861 10.3761 7.28564 10.5509 7.23864 10.7524C7.10985 11.3043 6.97159 11.9395 6.82386 12.6578C6.74305 13.0508 6.68321 13.3408 6.64433 13.5279C6.62898 13.6018 6.4255 13.7083 6.35227 13.69C6.20076 13.6522 6.03977 13.5822 5.86932 13.4802C5.69886 13.3781 5.58712 13.2363 5.53409 13.0548C5.41288 12.6465 5.31061 12.034 5.22727 11.2174C5.14394 10.4008 5.07955 9.67297 5.03409 9.03403C5.01435 8.75657 4.9939 8.53294 4.97273 8.36313C4.94347 8.1284 4.73746 8.04429 4.52841 8.15501C4.3428 8.25331 4.15152 8.34026 3.95455 8.41588C3.72727 8.49905 3.41667 8.61248 3.02273 8.75614C2.62879 8.89981 2.31818 9.01512 2.09091 9.10208C1.86364 9.18904 1.61174 9.293 1.33523 9.41399C1.05871 9.53497 0.835227 9.65784 0.664773 9.78261C0.580704 9.84414 0.506309 9.90614 0.44159 9.96859C0.318534 10.0873 0.240452 10.2437 0.208863 10.4118C0.104148 10.9689 0.0388077 12.1549 0.0128422 13.9696C-0.00296059 15.074 0.895431 15.9698 2 15.9698H14C15.1046 15.9698 15.9986 15.0743 15.9731 13.97C15.9637 13.563 15.9518 13.1256 15.9375 12.6578C15.9055 11.6122 15.8567 10.879 15.7912 10.4581C15.7603 10.2596 15.6733 10.0732 15.5253 9.93743C15.4686 9.8855 15.4053 9.83389 15.3352 9.78261C15.1648 9.65784 14.9413 9.53497 14.6648 9.41399C14.3883 9.293 14.1364 9.18904 13.9091 9.10208C13.6818 9.01512 13.3712 8.89981 12.9773 8.75614C12.5833 8.61248 12.2727 8.49905 12.0455 8.41588C11.8485 8.34026 11.6572 8.25331 11.4716 8.15501C11.2625 8.04429 11.058 8.12893 11.0326 8.36412C11.0143 8.5338 10.9977 8.75711 10.983 9.03403C10.9489 9.67297 10.8958 10.4008 10.8239 11.2174C10.7519 12.034 10.6553 12.6465 10.5341 13.0548C10.4811 13.2363 10.3693 13.3781 10.1989 13.4802C10.0284 13.5822 9.86742 13.6522 9.71591 13.69C9.64701 13.7072 9.43939 13.5964 9.42499 13.5269C9.10295 11.9709 8.84595 10.8712 8.654 10.2279C8.55594 9.89924 8.61164 9.53127 8.81887 9.25798C8.83617 9.23517 8.85352 9.21211 8.87091 9.18882C9.11828 8.85748 9.00988 8.43332 8.63068 8.26843ZM8 0C8.81586 0 9.53086 0.230429 10.145 0.691287C10.4828 0.944751 10.9584 1.01527 11.3636 1.13422C11.4621 1.14934 11.572 1.15312 11.6932 1.14556C11.8144 1.138 11.9299 1.12854 12.0398 1.1172C12.1496 1.10586 12.2576 1.15879 12.3636 1.27599C12.4697 1.39319 12.5568 1.58412 12.625 1.84877C12.6553 1.96975 12.6799 2.08129 12.6989 2.18336C12.7178 2.28544 12.7235 2.38185 12.7159 2.47259C12.7083 2.56333 12.7045 2.63894 12.7045 2.69943C12.7045 2.75992 12.6875 2.82798 12.6534 2.90359C12.6193 2.97921 12.5985 3.03403 12.5909 3.06805C12.5833 3.10208 12.5492 3.15501 12.4886 3.22684C12.428 3.29868 12.392 3.34215 12.3807 3.35728C12.3693 3.3724 12.3277 3.41777 12.2557 3.49338C12.1781 3.57492 12.1286 3.67854 12.0898 3.7842C12.045 3.90619 11.9791 4.01719 11.892 4.1172C11.7396 4.29241 11.5391 4.49806 11.4705 4.71993C11.2636 5.38891 10.8795 5.95738 10.3182 6.42533C9.65151 6.9811 8.87879 7.25898 8 7.25898C7.12121 7.25898 6.34848 6.9811 5.68182 6.42533C5.12049 5.95738 4.7364 5.38891 4.52954 4.71993C4.46094 4.49806 4.26039 4.29241 4.10795 4.1172C4.02094 4.01719 3.95504 3.90619 3.91024 3.7842C3.87144 3.67854 3.82192 3.57492 3.74432 3.49338C3.67235 3.41777 3.63068 3.3724 3.61932 3.35728C3.60795 3.34215 3.57197 3.29868 3.51136 3.22684C3.45076 3.15501 3.41667 3.10208 3.40909 3.06805C3.40152 3.03403 3.38068 2.97921 3.34659 2.90359C3.3125 2.82798 3.29545 2.75992 3.29545 2.69943C3.29545 2.63894 3.29167 2.56333 3.28409 2.47259C3.27652 2.38185 3.2822 2.28544 3.30114 2.18336C3.32008 2.08129 3.3447 1.96975 3.375 1.84877C3.44318 1.58412 3.5303 1.39319 3.63636 1.27599C3.74242 1.15879 3.85038 1.10586 3.96023 1.1172C4.07008 1.12854 4.18561 1.138 4.30682 1.14556C4.42803 1.15312 4.53788 1.14934 4.63636 1.13422C5.04155 1.01527 5.51724 0.944751 5.855 0.691287C6.46914 0.230429 7.18414 0 8 0ZM7.46591 2.54064C7.51136 2.54064 7.55114 2.55766 7.58523 2.59168C7.61932 2.62571 7.63636 2.66541 7.63636 2.71077C7.63636 2.87475 7.77789 3.00005 7.94179 2.99524C7.96241 2.99463 7.98181 2.99433 8 2.99433C8.01819 2.99433 8.03759 2.99463 8.05821 2.99524C8.22211 3.00005 8.36364 2.87475 8.36364 2.71077C8.36364 2.66541 8.38068 2.62571 8.41477 2.59168C8.44886 2.55766 8.48864 2.54064 8.53409 2.54064H9.60765C9.86477 2.54064 9.94947 2.26168 9.98864 2.00756C9.99621 1.93195 10.0095 1.87902 10.0284 1.84877C10.0473 1.81853 10.0682 1.79962 10.0909 1.79206C10.1136 1.7845 10.1515 1.76749 10.2045 1.74102C10.2974 1.69468 10.3012 1.57179 10.2302 1.49605C9.63577 0.861632 8.89237 0.544423 8 0.544423C7.10763 0.544423 6.36423 0.861632 5.7698 1.49605C5.69884 1.57179 5.70259 1.69468 5.79545 1.74102C5.84848 1.76749 5.88636 1.7845 5.90909 1.79206C5.93182 1.79962 5.95265 1.81853 5.97159 1.84877C5.99053 1.87902 6.00379 1.93195 6.01136 2.00756C6.05053 2.26168 6.13523 2.54064 6.39235 2.54064H7.46591ZM5.45455 3.41113C5.45455 3.22477 5.30733 3.07174 5.13328 3.13834C5.04934 3.17046 4.93306 3.26442 4.92353 3.35379C4.9139 3.44409 4.90909 3.53599 4.90909 3.62949C4.90909 4.47637 5.21212 5.20227 5.81818 5.80718C6.42424 6.4121 7.15152 6.71456 8 6.71456C8.84848 6.71456 9.57576 6.4121 10.1818 5.80718C10.7879 5.20227 11.0909 4.47637 11.0909 3.62949C11.0909 3.53599 11.0861 3.44409 11.0765 3.35379C11.0669 3.26442 10.9507 3.17046 10.8667 3.13834C10.6927 3.07174 10.5455 3.22477 10.5455 3.41113V4.18526C10.5455 4.23062 10.5284 4.27032 10.4943 4.30435C10.4602 4.33837 10.4205 4.35539 10.375 4.35539H8.53409C8.48864 4.35539 8.44886 4.33837 8.41477 4.30435C8.38068 4.27032 8.36364 4.23062 8.36364 4.18526V3.83652C8.36364 3.62383 8.21269 3.43667 8 3.43667C7.78731 3.43667 7.63636 3.62383 7.63636 3.83651V4.18526C7.63636 4.23062 7.61932 4.27032 7.58523 4.30435C7.55114 4.33837 7.51136 4.35539 7.46591 4.35539H5.625C5.57955 4.35539 5.53977 4.33837 5.50568 4.30435C5.47159 4.27032 5.45455 4.23062 5.45455 4.18526V3.41113ZM9.95455 2.90359H8.95455C8.89394 2.90359 8.84091 2.92628 8.79545 2.97164C8.75 3.01701 8.72727 3.06994 8.72727 3.13043V3.7656C8.72727 3.82609 8.75 3.87902 8.79545 3.92439C8.84091 3.96975 8.89394 3.99244 8.95455 3.99244H9.95455C10.0152 3.99244 10.0682 3.96975 10.1136 3.92439C10.1591 3.87902 10.1818 3.82609 10.1818 3.7656V3.13043C10.1818 3.06994 10.1591 3.01701 10.1136 2.97164C10.0682 2.92628 10.0152 2.90359 9.95455 2.90359ZM6.04545 2.90359C5.98485 2.90359 5.93182 2.92628 5.88636 2.97164C5.84091 3.01701 5.81818 3.06994 5.81818 3.13043V3.7656C5.81818 3.82609 5.84091 3.87902 5.88636 3.92439C5.93182 3.96975 5.98485 3.99244 6.04545 3.99244H7.04545C7.10606 3.99244 7.15909 3.96975 7.20455 3.92439C7.25 3.87902 7.27273 3.82609 7.27273 3.7656V3.13043C7.27273 3.06994 7.25 3.01701 7.20455 2.97164C7.15909 2.92628 7.10606 2.90359 7.04545 2.90359H6.04545Z" fill="black" fill-opacity="0.8"/>
</svg>
