<svg width="24" height="24" viewBox="0 0 24 24" fill="none" xmlns="http://www.w3.org/2000/svg">
<path d="M5.9999 5C5.04512 5 4.12945 5.37928 3.45432 6.05442C2.77919 6.72955 2.3999 7.64522 2.3999 8.6H21.5999C21.5999 7.64522 21.2206 6.72955 20.5455 6.05442C19.8704 5.37928 18.9547 5 17.9999 5H5.9999Z" fill="#FABC15"/>
<path d="M5.9999 19.4C5.04512 19.4 4.12945 19.0207 3.45432 18.3456C2.77919 17.6704 2.3999 16.7548 2.3999 15.8H21.5999C21.5999 16.7548 21.2206 17.6704 20.5455 18.3456C19.8704 19.0207 18.9547 19.4 17.9999 19.4H5.9999Z" fill="#FABC15"/>
<path d="M0.492893 11.4929C0.68043 11.3054 0.934784 11.2 1.2 11.2H22.8C23.0652 11.2 23.3196 11.3054 23.5071 11.4929C23.6946 11.6804 23.8 11.9348 23.8 12.2C23.8 12.4652 23.6946 12.7196 23.5071 12.9071C23.3196 13.0946 23.0652 13.2 22.8 13.2H1.2C0.934784 13.2 0.68043 13.0946 0.492893 12.9071C0.305357 12.7196 0.2 12.4652 0.2 12.2C0.2 11.9348 0.305357 11.6804 0.492893 11.4929Z" fill="#FABC15" stroke="#FABC15" stroke-width="0.4"/>
</svg>
