<svg width="124" height="120" viewBox="0 0 124 120" fill="none" xmlns="http://www.w3.org/2000/svg">
<ellipse cx="61.7822" cy="60" rx="61.7822" ry="60" fill="#FABC15"/>
<path fill-rule="evenodd" clip-rule="evenodd" d="M117.986 84.9504C108.235 105.632 86.7363 120 61.7821 120C36.828 120 15.3293 105.632 5.57861 84.9504L61.7821 84.9504H117.986Z" fill="black" fill-opacity="0.25"/>
<g clip-path="url(#clip0)">
<path d="M52.8712 94.2574V91.2871H54.8514V94.2574H57.8217V96.2376H54.8514V99.2079H52.8712V96.2376H49.9009V94.2574H52.8712ZM55.8415 100.198V97.2277H58.8118V94.2574H65.7425L67.5543 96.2376H70.693C71.7821 96.2376 72.6732 97.1287 72.6732 98.2178V110.099C72.6732 111.188 71.7821 112.079 70.693 112.079H54.8514C53.7623 112.079 52.8712 111.188 52.8712 110.099V100.198H55.8415ZM62.7722 109.109C65.5048 109.109 67.7227 106.891 67.7227 104.158C67.7227 101.426 65.5048 99.2079 62.7722 99.2079C60.0395 99.2079 57.8217 101.426 57.8217 104.158C57.8217 106.891 60.0395 109.109 62.7722 109.109ZM59.6038 104.158C59.6038 105.911 61.0197 107.327 62.7722 107.327C64.5246 107.327 65.9405 105.911 65.9405 104.158C65.9405 102.406 64.5246 100.99 62.7722 100.99C61.0197 100.99 59.6038 102.406 59.6038 104.158Z" fill="#FABC15"/>
</g>
<defs>
<clipPath id="clip0">
<rect width="23.7624" height="23.7624" fill="white" transform="translate(49.9009 90.297)"/>
</clipPath>
</defs>
</svg>
